<?xml version="1.0" encoding="utf-8"?>
<!-- Generator: Adobe Illustrator 25.4.1, SVG Export Plug-In . SVG Version: 6.00 Build 0)  -->
<svg version="1.1" id="Layer_1" xmlns="http://www.w3.org/2000/svg" xmlns:xlink="http://www.w3.org/1999/xlink" x="0px" y="0px"
	 viewBox="0 0 240.9 240.9" style="enable-background:new 0 0 240.9 240.9;" xml:space="preserve">
<style type="text/css">
	.st0{display:none;}
	.st1{display:inline;}
</style>
<g class="st0">
	<g class="st1">
		<path d="M15.8,208c0-2.4-0.1-4.5-0.2-6.1h5.1l0.2,2.7h0.1c0.7-1.1,2.5-3.1,6.1-3.1c2.6,0,4.6,1.3,5.5,3.4h0.1
			c0.8-1.1,1.7-1.9,2.6-2.4c1.1-0.7,2.3-1,3.9-1c3.7,0,6.8,2.5,6.8,8.5v10.8h-5.9v-9.9c0-2.9-1.1-4.5-3.1-4.5c-1.5,0-2.5,1-3,2.2
			c-0.2,0.5-0.2,1.1-0.2,1.5v10.7H28v-10.1c0-2.7-1.1-4.3-3-4.3c-1.7,0-2.7,1.4-3,2.2c-0.2,0.5-0.2,1-0.2,1.5v10.7h-5.9V208z"/>
		<path d="M61.1,220.7l-0.4-1.9h-0.1c-1.3,1.5-3.4,2.3-5.8,2.3c-4.2,0-6.5-2.9-6.5-5.8c0-4.9,4.4-7.3,11.9-7.3v-0.2
			c0-0.8-0.4-2.4-3.7-2.4c-2.1,0-4.3,0.7-5.6,1.5l-1.1-3.9c1.4-0.8,4.1-1.8,7.8-1.8c6.5,0,8.8,3.6,8.8,8.2v6.4
			c0,1.9,0.1,3.7,0.3,4.6H61.1z M60.4,211.9c-3.6,0-6,0.8-6,2.9c0,1.4,1,2.2,2.5,2.2c1.6,0,3-1.1,3.4-2.3c0.1-0.3,0.1-0.7,0.1-1
			V211.9z"/>
		<path d="M69.8,208c0-2.4-0.1-4.5-0.2-6.1H75l0.3,2.8h0.1c0.7-1.1,2.7-3.2,6.2-3.2c3.9,0,7.3,2.5,7.3,8.5v10.8h-6.1v-10
			c0-2.7-1-4.4-3.4-4.4c-1.9,0-2.9,1.3-3.3,2.4C76,209,76,209.6,76,210v10.7h-6.1V208z"/>
		<path d="M96.2,201.9l3.1,9.1c0.4,1.1,0.8,2.6,1.1,3.6h0.1c0.3-1,0.7-2.5,1-3.6l2.6-9h6.7l-4.5,11.7c-3.3,8.8-5.3,11.6-7.4,13.3
			c-2.2,1.7-4.4,2.3-6.1,2.4l-1.2-5.1c0.7-0.1,1.6-0.4,2.6-0.8c1-0.4,2.1-1.4,2.7-2.4c0.2-0.3,0.4-0.6,0.4-0.9c0-0.2,0-0.5-0.3-1.1
			l-7.5-17.2H96.2z"/>
	</g>
	<g class="st1">
		<path d="M113.4,217.6c1.2,0.7,2.9,1.2,4.7,1.2c2.7,0,4.3-1.3,4.3-3.2c0-1.8-1.1-2.8-3.8-3.7c-3.3-1.1-5.4-2.7-5.4-5.3
			c0-2.9,2.6-5.1,6.6-5.1c2.1,0,3.6,0.4,4.5,0.9l-0.7,2c-0.7-0.3-2-0.9-3.9-0.9c-2.8,0-3.8,1.5-3.8,2.8c0,1.8,1.2,2.6,4,3.6
			c3.4,1.2,5.2,2.8,5.2,5.5c0,2.9-2.3,5.4-7.1,5.4c-2,0-4.1-0.5-5.2-1.2L113.4,217.6z"/>
		<path d="M139.2,211.7h-7.9v6.8h8.8v2h-11.4v-18.9h11v2h-8.4v6h7.9V211.7z"/>
		<path d="M157.8,219.9c-1,0.4-2.9,0.9-5.4,0.9c-5.7,0-10.1-3.4-10.1-9.5c0-5.9,4.3-9.9,10.6-9.9c2.5,0,4.1,0.5,4.8,0.8l-0.6,2
			c-1-0.4-2.4-0.8-4.1-0.8c-4.8,0-7.9,2.8-7.9,7.8c0,4.6,2.9,7.6,7.8,7.6c1.6,0,3.2-0.3,4.3-0.8L157.8,219.9z"/>
		<path d="M163.7,201.7v11.2c0,4.2,2,6,4.7,6c3,0,5-1.8,5-6v-11.2h2.7v11c0,5.8-3.3,8.2-7.7,8.2c-4.2,0-7.3-2.2-7.3-8.1v-11.1H163.7
			z"/>
		<path d="M180.6,202c1.3-0.3,3.2-0.4,5-0.4c2.8,0,4.6,0.5,5.9,1.5c1,0.8,1.6,2.1,1.6,3.6c0,2.5-1.7,4.1-3.8,4.8v0.1
			c1.6,0.5,2.5,1.8,3,3.8c0.7,2.6,1.1,4.4,1.6,5.2h-2.7c-0.3-0.5-0.8-2.2-1.4-4.5c-0.6-2.6-1.7-3.6-4.1-3.7h-2.5v8.2h-2.6V202z
			 M183.2,210.5h2.7c2.8,0,4.6-1.4,4.6-3.6c0-2.4-1.9-3.5-4.7-3.5c-1.3,0-2.2,0.1-2.6,0.2V210.5z"/>
		<path d="M207.4,211.7h-7.9v6.8h8.8v2h-11.4v-18.9h11v2h-8.4v6h7.9V211.7z"/>
		<path d="M211.7,202c1.6-0.2,3.5-0.4,5.6-0.4c3.8,0,6.5,0.8,8.2,2.3c1.8,1.5,2.9,3.7,2.9,6.8c0,3.1-1,5.6-2.9,7.3
			c-1.9,1.8-5,2.7-9,2.7c-1.9,0-3.4-0.1-4.8-0.2V202z M214.3,218.6c0.7,0.1,1.6,0.1,2.7,0.1c5.6,0,8.7-2.9,8.7-8
			c0-4.4-2.7-7.3-8.2-7.3c-1.4,0-2.4,0.1-3.1,0.3V218.6z"/>
	</g>
</g>
<g>
	<g>
		<path d="M139.2,94.5c0.3,0.3,0.7,0.7,1.1,1.1c1.1,1.2,1.1,2.7,0,3.8c-1.1,1.1-2.5,1.1-3.8-0.1c-5.5-5.2-12-7.7-19.5-7.2
			c-6.2,0.4-11.5,2.9-16,7.1c-1.3,1.3-2.9,1.3-3.9,0.1c-1.1-1.2-0.9-2.7,0.4-4c10.5-10,26.2-11.4,38.3-3.3
			C137,92.7,138.1,93.6,139.2,94.5z"/>
		<path d="M132.4,102.5c1.3,1.3,1.7,2.4,1,3.6c-0.9,1.7-2.9,1.9-4.5,0.4c-3.4-3.2-7.5-4.5-12.1-4.1c-3.4,0.3-6.3,1.7-8.9,4
			c-1.5,1.4-2.9,1.5-4.1,0.3c-1.2-1.2-1-2.7,0.4-4.1C111.7,95.3,124.6,95.2,132.4,102.5z"/>
		<path d="M126.9,110.6c1.3,1.2,1.4,2.9,0.3,4c-1.1,1.1-2.6,1-3.9-0.1c-2.9-2.6-6.8-2.6-9.8,0c-1.6,1.4-3.8,1-4.4-0.9
			c-0.4-1.1,0-2.1,0.8-2.9C114.3,106.1,122.3,106.1,126.9,110.6z"/>
		<path d="M122,124.7c-1.8,1.8-4.7,1.9-6.5,0.1c-1.8-1.8-1.9-4.7-0.1-6.5c1.7-1.8,4.8-1.8,6.6,0C123.8,119.9,123.8,122.8,122,124.7z
			"/>
	</g>
	<g>
		<path d="M197.2,95.6c-3.6-4.1-10.5-5-14.3-0.8c-3.5,3.8-7.3,4.4-11.8,4.2c-3.5-0.2-7,0-10.5,0c-6.7-0.1-6.9-0.3-5.9-6.9
			c0.2-1.5,0.1-3.1,1.8-3.7c1.8-0.6,3.2,0.3,4.3,1.6c1.4,1.7,3,3.2,5.2,4c5.1,1.8,10.8-0.5,13.1-5.3c2.1-4.4,0.9-9.7-2.7-12.5
			c-4.7-3.5-10.6-3.1-14.4,1.3c-1.9,2.3-5.2,5.9-6.9,3.3c-4.1-6.2-8.9-7.1-13.9-11.3c-0.3-0.3-1.1-1-1.2-1.5
			c-0.6-3.7,1.6-6.7,4.1-9.2c4.5-4.5,4.4-10.2,0.3-14.8c-3.6-4-9-4.9-13.5-1.3c-5.4,4.3-5,11.6-1.2,16.4c2.4,2.9,3,3.7,3.1,9
			c-1.1-0.1-2.7-0.1-3.8-0.3c-6.3-0.8-6.6-1.2-6.7-7.6c0-4.1,0.1-8.1,0-12.2c-0.1-3.5,0.8-6.2,3.6-8.7c4.7-4.3,4.3-10.8-0.1-15.2
			c-4.4-4.4-9.6-4.5-14.2-0.3c-4.7,4.3-5.3,10.7-0.6,15.1c3.2,3.1,4,6.3,3.8,10.3c-0.2,2.9,0,5.9,0,8.8c0,9.7-0.2,9.7-9.9,9.8
			c-0.2,0,0,0-1.5,0c-1.1-3.1-0.3-5.1,2.2-8.3c2.7-3.4,4.9-4.5,4.2-10.7c-0.5-4.3-5.6-8.4-9.8-8.6c-3.8-0.1-8.2,2.4-10,5.9
			c-2.1,4.1-1.2,9.4,2.1,12.8c5.6,5.8,4.1,8.8,1.8,11.3c-0.8,0.8-2.7,1.9-4.2,3.1c-1,0.8-3,3-3.3,3.3c-5.1,5.2-6.2,5.5-10.9,0.3
			c-3.3-3.6-6.7-4.4-11.1-2.9c-4.1,1.4-6.3,4.4-7,8.5c-0.7,4.2,1.1,7.6,4.5,10c4.3,3,9.7,2.3,14-2c1.4-1.4,2.8-3.6,5-2.4
			c3.1,1.7,2.1,5.2,2.4,8c0.2,2.2-1.9,2.4-3.6,2.5c-5.5,0.1-11.1,0-16.6,0.1c-2.9,0.1-5.3-0.6-7.3-3c-2.2-2.6-5-4.3-8.7-3.8
			c-5.1,0.6-8.6,4.1-9.3,9.5c-0.5,4,2,8.3,6,10.3c4.4,2.2,9.2,1.2,12.4-2.8c1.6-2,3-3.5,5.8-3.4c6.1,0.1,12.2,0.2,18.2,0
			c4.8-0.2,4.9,3.6,6.1,6.5c0.7,1.8,0.9,3.8-1.2,4.8c-3,1.4-5.8,0.7-8.2-1.3c-0.7-0.6-1.2-1.4-1.9-2c-4.6-4.4-10.2-4.4-14.8-0.1
			c-3.9,3.6-3.7,10.1,0.3,14.5c3.7,4,10.4,4.4,14.3,0c4.8-5.3,10.8-4.5,15.7-2.7c4.9,1.8,6.9,7,6.7,12.8c-0.2,4.8,0.2,7.1-4.3,12.9
			c-3,3.8-3.2,9.2-0.2,13.2c2.1,2.7,7.5,4.2,11.1,3c4.8-1.6,6.6-4.6,6.6-10.2c0-3.5-1.4-5.9-3.9-8.2c-2.1-1.9-2-3.1-1.8-7
			c4.3,1.9,9.8,2.1,9.9,8.1c0.1,7.5,1.9,12.2-3.9,20c-2.4,3.1-3.6,8.8-1.4,12.2c2.1,3.3,5.5,5.5,9.7,5.3c4.5-0.2,8-2.3,9.4-6.6
			c1.3-4.3-0.2-8.1-3.1-12c-1.4-2-2.4-4.1-2.5-6.8c-0.1-3.1-0.2-4.2-0.2-7.1c-0.1-7.9,1.9-11.2,10.5-13.2c0.9,3-0.3,5.1-2.3,7.2
			c-2.5,2.7-3.4,5.3-3.4,9.5c0,3.9,1.5,6.5,6,8.5c4.2,1.9,10.2-0.5,12-3.6c2.3-4,2.4-9.9-1-12.9c-4.4-3.9-4.3-8.6-4.1-13.6
			c0.3-7.7,5.2-12.4,12.9-12.5c3.7-0.1,6.5,0.9,9.3,3.7c4.1,4.1,11,3.6,14.9-0.5c3.6-3.8,3.5-10.6-0.2-14.1
			c-4.4-4.1-10.4-4-14.9,0.2c-0.8,0.8-1.4,1.7-2.3,2.4c-2.4,1.7-5.1,2.3-7.8,0.8c-2.7-1.5-1-3.9-0.7-5.9c0.5-2.9,1.6-5.3,5.3-5.2
			c4.6,0.1,9.2,0.1,13.8,0c4.7-0.2,8.1,0.1,12.2,3.8c4.4,4,9.8,4.4,13.8,0.3C200.5,105.6,200.8,99.7,197.2,95.6z M169.6,80.9
			c2.1,0.4,3.5,1.4,3.5,3.6c0,2-1.3,3.1-3.2,3c-2.1-0.1-3.6-1.2-3.5-3.4C166.5,82.2,167.9,81.2,169.6,80.9z M68.1,87.5
			c-2.1,0-3.5-1.3-3.6-3.4c-0.1-1.9,1.4-3,3.2-3.1c2.1-0.1,3.3,1.2,3.6,3.1C71,86.2,70.1,87.5,68.1,87.5z M48,105.4
			c-1.9-0.2-3.2-1.1-3.2-3c-0.1-2.2,1.3-3.3,3.4-3.3c1.8,0,3.1,1,3.2,3C51.5,104.4,50.1,105.3,48,105.4z M67.5,123.7
			c-1.9,0-3.1-1.4-3-3.2c0.1-2.1,1.4-3.4,3.6-3.3c1.9,0.1,2.8,1.5,3.2,3.1C71,122.6,69.5,123.7,67.5,123.7z M169.4,117.1
			c2.2,0.2,3.5,1.4,3.6,3.5c0.1,1.8-0.9,3.3-2.9,3.4c-2.1,0.1-3.6-1-3.9-3.1C166,118.7,167.4,117.5,169.4,117.1z M137.2,48.5
			c1.8-0.1,2.7,1,2.8,2.7c0,2-1.1,3-3,3.1c-1.8-0.1-2.9-1-2.9-2.7C134,49.6,135.3,48.6,137.2,48.5z M118.6,28.8c1.8,0,3,1.3,3.3,3.1
			c0.3,1.8-1,2.5-2.6,2.7c-1.8-0.1-3.4-0.9-3.6-2.7C115.4,30,116.7,28.7,118.6,28.8z M99.1,48.4c2-0.1,2.9,1.1,3.2,2.7
			c-0.2,2.1-1.2,3.3-3.1,3.2c-2-0.1-2.9-1.3-2.9-3.2C96.4,49.5,97.4,48.5,99.1,48.4z M100.6,160.5c-2,0-3.1-1.1-3.1-3
			c0-1.7,1-2.8,2.6-2.9c1.9-0.2,3.1,0.8,3.4,2.8C103.5,159.2,102.6,160.5,100.6,160.5z M122,176.8c0.1,2.1-1.5,2.7-3.3,2.7
			c-1.5,0-3-0.5-3.3-2.2c-0.3-2.1,1.2-2.8,2.9-3C120.2,174.3,121.9,174.7,122,176.8z M137.4,160.5c-1.9,0.2-3.2-0.7-3.4-2.7
			c-0.2-1.9,0.9-3,2.8-3.3c1.9,0.1,3.1,1,3.1,3C140,159.2,139.1,160.3,137.4,160.5z M126.2,134.1c-6.7,5-10,4.7-16.3-0.8
			C97.7,122.7,92.5,109,91.5,91.4c-0.5-4.7,0.7-9,9.5-12.4c13.1-5.1,26.3-4.5,39,1.6c3.2,1.5,5.4,4.2,5.5,7.7
			C146.1,106.5,141.6,122.6,126.2,134.1z M189.2,105.4c-2.1-0.1-3.4-1.3-3.2-3.5c0.2-1.9,1.6-2.8,3.5-2.7c2.1,0,3.4,1,3.5,3.3
			C192.7,104.7,191.3,105.5,189.2,105.4z"/>
	</g>
</g>
</svg>
